<svg xmlns="http://www.w3.org/2000/svg" width="30.624" height="36">
    <path fill="#343F4B" fill-rule="evenodd" d="M20.52 8.609v13.16c0 2.726-2.111 4.935-4.715 4.935H6.376c-2.603 0-4.714-2.209-4.714-4.935V8.609C.794 8.609.09 7.872.09 6.964c0-.909.704-1.645 1.572-1.645h4.714c0-2.726 2.111-4.935 4.715-4.935 2.604 0 4.714 2.209 4.714 4.935h4.715c.868 0 1.571.736 1.571 1.645 0 .908-.703 1.645-1.571 1.645zm-9.429-4.935c-.868 0-1.572.736-1.572 1.645h3.143c0-.909-.703-1.645-1.571-1.645zM4.805 8.609v13.16c0 .909.703 1.645 1.571 1.645h9.429c.868 0 1.572-.736 1.572-1.645V8.609H4.805zm8.643 11.515c-.434 0-.786-.368-.786-.822v-6.581c0-.454.352-.822.786-.822.434 0 .786.368.786.822v6.581c0 .454-.352.822-.786.822zm-4.714 0c-.434 0-.786-.368-.786-.822v-6.581c0-.454.352-.822.786-.822.434 0 .785.368.785.822v6.581c0 .454-.351.822-.785.822z"/>
</svg>
