<?xml version="1.0" encoding="UTF-8" standalone="no"?>
<svg
   xmlns:dc="http://purl.org/dc/elements/1.1/"
   xmlns:cc="http://creativecommons.org/ns#"
   xmlns:rdf="http://www.w3.org/1999/02/22-rdf-syntax-ns#"
   xmlns:svg="http://www.w3.org/2000/svg"
   xmlns="http://www.w3.org/2000/svg"
   xmlns:sodipodi="http://sodipodi.sourceforge.net/DTD/sodipodi-0.dtd"
   xmlns:inkscape="http://www.inkscape.org/namespaces/inkscape"
   width="36"
   height="36"
   id="svg2"
   version="1.1"
   inkscape:version="0.91 r13725"
   sodipodi:docname="compass.svg">
  <metadata
     id="metadata10">
    <rdf:RDF>
      <cc:Work
         rdf:about="">
        <dc:format>image/svg+xml</dc:format>
        <dc:type
           rdf:resource="http://purl.org/dc/dcmitype/StillImage" />
      </cc:Work>
    </rdf:RDF>
  </metadata>
  <defs
     id="defs8" />
  <sodipodi:namedview
     pagecolor="#ffffff"
     bordercolor="#666666"
     borderopacity="1"
     objecttolerance="10"
     gridtolerance="10"
     guidetolerance="10"
     inkscape:pageopacity="0"
     inkscape:pageshadow="2"
     inkscape:window-width="640"
     inkscape:window-height="480"
     id="namedview6"
     showgrid="false"
     inkscape:zoom="6.5555556"
     inkscape:cx="18"
     inkscape:cy="18"
     inkscape:window-x="0"
     inkscape:window-y="0"
     inkscape:window-maximized="0"
     inkscape:current-layer="svg2" />
  <path
     d="M 17.917565,35.791 C 8.0176616,35.791 -0.009,27.782436 -0.009,17.902 c 0,-9.8790997 8.0266616,-17.889 17.926565,-17.889 9.901231,0 17.927893,8.0099003 17.927893,17.889 0,9.880436 -8.026662,17.889 -17.927893,17.889 z m 0,-31.3047479 c -7.425259,0 -13.4445918,6.0057549 -13.4445918,13.4157479 0,7.409993 6.0193328,13.417084 13.4445918,13.417084 7.426587,0 13.445919,-6.007091 13.445919,-13.417084 0,-7.409993 -6.019332,-13.4157479 -13.445919,-13.4157479 z M 11.579609,24.227082 c -1.7497752,-1.746278 1.419203,-7.741345 3.168978,-9.487623 1.751103,-1.746279 7.757159,-4.9088197 9.508262,-3.162541 1.749775,1.747614 -1.419203,7.741345 -3.168978,9.487623 -1.751103,1.746279 -7.757159,4.90882 -9.508262,3.162541 z M 22.671696,13.158856 c -0.874888,-0.873807 -5.463069,2.288734 -6.337956,3.162541 l 3.168978,3.162542 c 0.874887,-0.873808 4.043865,-5.452611 3.168978,-6.325083 z"
     id="path4"
     inkscape:connector-curvature="0"
     style="fill:#8f91a2;fill-rule:evenodd" />
</svg>
