<svg xmlns="http://www.w3.org/2000/svg" width="22.656" height="19.968">
    <path fill="#E91A19" fill-rule="evenodd" d="M16.543 14.289a.463.463 0 0 1-.403.236H.864a.464.464 0 0 1-.403-.236.477.477 0 0 1 0-.471L8.1.403a.462.462 0 0 1 .804 0l7.639 13.415a.477.477 0 0 1 0 .471zM8.502 1.581L1.669 13.582h13.666L8.502 1.581zm0 2.356c.257 0 .465.211.465.471v5.31a.467.467 0 0 1-.465.471.467.467 0 0 1-.465-.471v-5.31c0-.26.209-.471.465-.471zm0 7.195c.257 0 .465.21.465.471v.565a.468.468 0 0 1-.465.472.468.468 0 0 1-.465-.472v-.565c0-.261.208-.471.465-.471z"/>
</svg>
