<svg xmlns="http://www.w3.org/2000/svg" width="100pt" height="100pt" fill="#8F91A2" viewBox="0 0 100 100">
    <path d="M14 94h72c6.629 0 12-5.371 12-12V26c0-6.629-5.371-12-12-12H44.469l-2.89-5.79a3.398 3.398 0 0 0-.36-.46 4.75 4.75 0 0 0-.52-.672c-.199-.16-.414-.3-.64-.43a5.035 5.035 0 0 0-.649-.367 4.84 4.84 0 0 0-.851-.172A3.444 3.444 0 0 0 38 6H14C7.371 6 2 11.372 2 18v64c0 6.63 5.371 12 12 12zm72-72a3.997 3.997 0 0 1 4 4v4H52.469l-4-8zm-76-4c0-2.21 1.79-4 4-4h21.531l10.891 21.789c.184.371.426.707.719 1l.18.148v.004c.3.258.636.473 1 .637.113.059.23.11.351.152.422.164.871.258 1.328.27h40v44a3.997 3.997 0 0 1-4 4H14c-2.21 0-4-1.79-4-4z"/>
</svg>
