<svg xmlns="http://www.w3.org/2000/svg" width="100pt" height="100pt" fill="#8F91A2" viewBox="0 0 100 100">
    <path d="M50 5C25.184 5 5 25.184 5 50s20.184 45 45 45 45-20.184 45-45S74.816 5 50 5zm0 6c21.574 0 39 17.426 39 39S71.574 89 50 89 11 71.574 11 50s17.426-39 39-39zm0 14c-8.25 0-15 6.75-15 15a2.998 2.998 0 0 0 3 3.043A2.998 2.998 0 0 0 41 40c0-5.008 3.992-9 9-9s9 3.992 9 9c.035 4.11-2.082 6.21-5.031 9-1.477 1.395-3.114 2.848-4.5 4.75S47 58.129 47 61a2.998 2.998 0 0 0 3 3.043A2.998 2.998 0 0 0 53 61c0-1.484.434-2.512 1.312-3.719s2.247-2.484 3.782-3.937C61.16 50.445 65.043 46.39 65 40v-.032C64.984 31.734 58.238 25 50 25zm0 42c-2.21 0-4 1.79-4 4s1.79 4 4 4 4-1.79 4-4-1.79-4-4-4z"/>
</svg>
