<svg xmlns="http://www.w3.org/2000/svg" width="100pt" height="100pt" fill="#343F4B" viewBox="0 0 100 100">
    <path fill-rule="evenodd" d="M11.109 88.891H88.89V11.11H11.109zM88.89 0c6.137 0 11.109 4.973 11.109 11.109V88.89c0 6.137-4.973 11.109-11.109 11.109H11.109C4.972 99.999 0 95.026 0 88.89V11.109C0 4.972 4.973 0 11.109 0zM49.999 83.332c3.07 0 5.555-2.48 5.555-5.555V38.89a5.555 5.555 0 1 0-11.11 0v38.887A5.549 5.549 0 0 0 50 83.332zm22.223 0c3.07 0 5.555-2.48 5.555-5.555v-50a5.554 5.554 0 0 0-5.555-5.554 5.551 5.551 0 0 0-5.555 5.554v50a5.546 5.546 0 0 0 5.555 5.555zm-44.445 0a5.546 5.546 0 0 0 5.555-5.555V50a5.551 5.551 0 0 0-5.555-5.554A5.554 5.554 0 0 0 22.222 50v27.777a5.549 5.549 0 0 0 5.555 5.555z"/>
</svg>
