<svg xmlns="http://www.w3.org/2000/svg" width="31.968" height="31.968">
    <path fill="#8F91A2" fill-rule="evenodd" d="M20.849 9.567c1.69.435 2.637 1.326 2.637 2.139 0 .803-.947 1.691-2.637 2.129-.685.159-1.443.261-2.201.276-.087.233-.218.452-.335.671.539.566 1.035 1.178 1.399 1.789.889 1.517.932 2.797.35 3.366-.569.569-1.866.538-3.366-.35a9.402 9.402 0 0 1-1.792-1.382c-.234.116-.438.247-.686.335 0 .757-.087 1.514-.262 2.185-.437 1.688-1.326 2.635-2.128 2.635-.815 0-1.704-.947-2.141-2.635-.175-.671-.263-1.414-.292-2.17-.247-.089-.466-.219-.699-.336a10.27 10.27 0 0 1-1.748 1.368c-1.502.888-2.799.919-3.367.35-.568-.569-.539-1.863.35-3.366a9.23 9.23 0 0 1 1.34-1.732c-.116-.248-.276-.481-.364-.743a9.65 9.65 0 0 1-2.098-.261C1.104 13.397.171 12.509.171 11.706c0-.813.933-1.704 2.638-2.139.641-.176 1.369-.265 2.113-.279.088-.262.233-.481.349-.714a10.196 10.196 0 0 1-1.34-1.733c-.889-1.513-.918-2.811-.35-3.38.568-.566 1.865-.537 3.367.35.597.364 1.208.845 1.748 1.369.233-.1.452-.248.699-.333.029-.76.117-1.502.292-2.157C10.124.986 11.013.053 11.828.053c.802 0 1.691.933 2.128 2.637.175.669.262 1.428.262 2.185.248.074.452.22.686.322a9.265 9.265 0 0 1 1.792-1.386c1.5-.887 2.797-.916 3.366-.35.582.569.539 1.867-.35 3.366a9.95 9.95 0 0 1-1.399 1.792c.102.22.234.422.321.655.772.014 1.53.117 2.215.293zm-9.093-2.185a4.334 4.334 0 0 0-4.343 4.339 4.347 4.347 0 0 0 4.343 4.356 4.346 4.346 0 0 0 4.342-4.356 4.333 4.333 0 0 0-4.342-4.339z"/>
</svg>
