<svg xmlns="http://www.w3.org/2000/svg" width="100pt" height="100pt" fill="#E91A19" viewBox="0 0 100 100">
    <path fill="none" stroke="#E91A19" stroke-linecap="round" stroke-linejoin="round" stroke-miterlimit="10" stroke-width="8.3334" d="M37.5 16.668H10.422a6.255 6.255 0 0 0-6.254 6.254v54.154c0 3.458 2.8 6.258 6.258 6.258H37.5M50 4.171V95.84"/>
    <path d="M66.668 16.668c0 5.555-8.336 5.555-8.336 0 0-5.559 8.336-5.559 8.336 0M79.168 16.668c0 5.555-8.336 5.555-8.336 0 0-5.559 8.336-5.559 8.336 0M91.668 16.668c0 5.555-8.336 5.555-8.336 0 0-5.559 8.336-5.559 8.336 0M100 25c0 5.555-8.332 5.555-8.332 0S100 19.445 100 25M100 37.5c0 5.555-8.332 5.555-8.332 0s8.332-5.555 8.332 0M100 50c0 5.555-8.332 5.555-8.332 0S100 44.445 100 50M100 62.5c0 5.555-8.332 5.555-8.332 0s8.332-5.555 8.332 0M100 75.348c0 5.555-8.332 5.555-8.332 0 0-5.559 8.332-5.559 8.332 0M91.668 83.332c0 5.559-8.336 5.559-8.336 0 0-5.555 8.336-5.555 8.336 0M79.168 83.332c0 5.559-8.336 5.559-8.336 0 0-5.555 8.336-5.555 8.336 0M66.668 83.332c0 5.559-8.336 5.559-8.336 0 0-5.555 8.336-5.555 8.336 0"/>
</svg>
