<svg xmlns="http://www.w3.org/2000/svg" width="26.688" height="26.688">
    <path fill="#8F91A2" fill-rule="evenodd" d="M16.133 19.12l-3.862-3.833c-1.09.584-2.309.942-3.612.942-4.252 0-7.688-3.452-7.688-7.711 0-4.26 3.436-7.723 7.688-7.723 4.228 0 7.675 3.463 7.675 7.723 0 1.308-.355 2.524-.936 3.604l3.897 3.856a2.207 2.207 0 0 1 0 3.142 2.243 2.243 0 0 1-3.162 0zM8.659 3.14c-2.938 0-5.319 2.391-5.319 5.343a5.32 5.32 0 0 0 5.319 5.331c2.925 0 5.306-2.38 5.306-5.331 0-2.952-2.381-5.343-5.306-5.343z"/>
</svg>
