<svg xmlns="http://www.w3.org/2000/svg" width="100pt" height="100pt" fill="#8F91A2" viewBox="0 0 100 100">
    <path d="M92.5 5c-22.133 0-42.602 9.48-56.945 25H7.5a2.498 2.498 0 0 0-1.766 4.266l16.211 16.21a77.09 77.09 0 0 0-4.18 11.54 2.488 2.488 0 0 0 .645 2.426L35.555 81.59a2.495 2.495 0 0 0 2.43.64c4-1.094 7.851-2.504 11.539-4.18l16.21 16.211a2.475 2.475 0 0 0 2.723.547A2.498 2.498 0 0 0 70 92.5V64.445C85.52 50.1 95 29.633 95 7.5 95 6.117 93.883 5 92.5 5zM38.051 77.016L22.985 61.95c6.098-20.664 20.98-37.066 39.859-45.566l20.777 20.773c-8.504 18.879-24.902 33.766-45.57 39.859zm51.906-66.973a72.152 72.152 0 0 1-4.29 22.086L67.872 14.336a72.134 72.134 0 0 1 22.086-4.293zM13.535 35h17.777a76.737 76.737 0 0 0-7.02 10.758zM65 86.465L54.242 75.707A77.704 77.704 0 0 0 65 68.687zM7.5 95c.64 0 1.281-.242 1.77-.73l10-10a2.5 2.5 0 1 0-3.536-3.536l-10 10A2.5 2.5 0 0 0 7.5 95zM18.23 94.27c.488.488 1.129.73 1.77.73s1.28-.242 1.769-.73l7.5-7.5a2.5 2.5 0 1 0-3.535-3.535l-7.5 7.5a2.503 2.503 0 0 0-.004 3.535zM7.5 82.5c.64 0 1.281-.242 1.77-.73l7.5-7.5a2.5 2.5 0 1 0-3.536-3.536l-7.5 7.5A2.5 2.5 0 0 0 7.5 82.5z"/>
    <path d="M55 32.5c-6.894 0-12.5 5.606-12.5 12.5S48.106 57.5 55 57.5 67.5 51.894 67.5 45 61.894 32.5 55 32.5zm0 20c-4.137 0-7.5-3.363-7.5-7.5s3.363-7.5 7.5-7.5 7.5 3.363 7.5 7.5-3.363 7.5-7.5 7.5z"/>
</svg>
