<svg xmlns="http://www.w3.org/2000/svg" width="100pt" height="100pt" fill="#8F91A2" viewBox="0 0 100 100">
    <path d="M93.785 1.879H6.215A6.233 6.233 0 0 0 0 8.094a6.233 6.233 0 0 0 6.215 6.215h87.57A6.233 6.233 0 0 0 100 8.094a6.233 6.233 0 0 0-6.215-6.215zM85.258 55.191a6.246 6.246 0 0 1-8.703 1.266l-19.72-14.72v50.169a6.216 6.216 0 0 1-6.214 6.214H49.38a6.216 6.216 0 0 1-6.215-6.214V41.738L23.445 56.457a6.216 6.216 0 1 1-7.434-9.969l30.173-22.504a6.158 6.158 0 0 1 3.8-1.207h.032a6.159 6.159 0 0 1 3.8 1.207l30.176 22.504h-.004a6.235 6.235 0 0 1 1.27 8.703z"/>
</svg>
