<svg xmlns="http://www.w3.org/2000/svg" width="60" height="43.968">
    <path fill="#343F4B" fill-rule="evenodd" d="M22.628 12.077c.261.006.516.114.656.239l5.363 4.778c.4.342.421.985.076 1.359-.344.373-1.007.397-1.386.06l-3.733-3.33v10.272a.966.966 0 0 1-.976.956.965.965 0 0 1-.975-.956V15.183l-3.733 3.33c-.379.337-1.025.294-1.387-.06-.375-.368-.305-1.023.076-1.359l5.364-4.778c.215-.192.396-.239.655-.239zm0-9.555c-2.872 0-5.729 1.06-7.924 3.21a10.833 10.833 0 0 0-3.199 9.093.948.948 0 0 1-.239.754.99.99 0 0 1-.737.321H9.95c-4.068 0-7.314 3.18-7.314 7.166 0 3.987 3.246 7.167 7.314 7.167h23.894c4.859 0 8.777-3.839 8.777-8.6 0-4.496-3.496-8.172-7.97-8.57a.97.97 0 0 1-.884-.836 10.829 10.829 0 0 0-3.2-6.495c-2.192-2.148-5.067-3.21-7.939-3.21zm0-1.911c3.368 0 6.743 1.247 9.311 3.763 1.992 1.952 3.179 4.395 3.627 6.927 5.099.812 9.006 5.116 9.006 10.332 0 5.793-4.816 10.511-10.728 10.511H9.95c-5.116 0-9.264-4.065-9.264-9.078 0-4.88 3.941-8.826 8.869-9.032-.143-3.477 1.076-7.012 3.779-9.66C15.899 1.86 19.261.611 22.629.611h-.001z"/>
</svg>
